<?xml version="1.0" encoding="UTF-8" standalone="no"?>
<!-- Created with Inkscape (http://www.inkscape.org/) -->

<svg
   xmlns:dc="http://purl.org/dc/elements/1.1/"
   xmlns:cc="http://creativecommons.org/ns#"
   xmlns:rdf="http://www.w3.org/1999/02/22-rdf-syntax-ns#"
   xmlns:svg="http://www.w3.org/2000/svg"
   xmlns="http://www.w3.org/2000/svg"
   xmlns:sodipodi="http://sodipodi.sourceforge.net/DTD/sodipodi-0.dtd"
   xmlns:inkscape="http://www.inkscape.org/namespaces/inkscape"
   width="210mm"
   height="297mm"
   viewBox="0 0 210 297"
   version="1.1"
   id="svg6095"
   inkscape:version="0.92.2 (5c3e80d, 2017-08-06)"
   sodipodi:docname="SimpleSVM.svg">
  <defs
     id="defs6089">
    <marker
       inkscape:stockid="Arrow2Lend"
       orient="auto"
       refY="0.0"
       refX="0.0"
       id="Arrow2Lend"
       style="overflow:visible;"
       inkscape:isstock="true">
      <path
         id="path7176"
         style="fill-rule:evenodd;stroke-width:0.625;stroke-linejoin:round;stroke:#000000;stroke-opacity:1;fill:#000000;fill-opacity:1"
         d="M 8.7185878,4.0337352 L -2.2072895,0.016013256 L 8.7185884,-4.0017078 C 6.9730900,-1.6296469 6.9831476,1.6157441 8.7185878,4.0337352 z "
         transform="scale(1.1) rotate(180) translate(1,0)" />
    </marker>
    <inkscape:perspective
       sodipodi:type="inkscape:persp3d"
       inkscape:vp_x="-45.596839 : 52.802617 : 1"
       inkscape:vp_y="0 : 1911.8567 : 0"
       inkscape:vp_z="218.61028 : 52.802617 : 1"
       inkscape:persp3d-origin="86.506719 : -41.834287 : 1"
       id="perspective6724" />
    <marker
       inkscape:stockid="Arrow2Lend"
       orient="auto"
       refY="0"
       refX="0"
       id="Arrow2Lend-9"
       style="overflow:visible"
       inkscape:isstock="true">
      <path
         inkscape:connector-curvature="0"
         id="path7176-1"
         style="fill:#000000;fill-opacity:1;fill-rule:evenodd;stroke:#000000;stroke-width:0.625;stroke-linejoin:round;stroke-opacity:1"
         d="M 8.7185878,4.0337352 -2.2072895,0.01601326 8.7185884,-4.0017078 c -1.7454984,2.3720609 -1.7354408,5.6174519 -6e-7,8.035443 z"
         transform="matrix(-1.1,0,0,-1.1,-1.1,0)" />
    </marker>
    <marker
       inkscape:stockid="Arrow2Lend"
       orient="auto"
       refY="0"
       refX="0"
       id="Arrow2Lend-0"
       style="overflow:visible"
       inkscape:isstock="true">
      <path
         inkscape:connector-curvature="0"
         id="path7176-4"
         style="fill:#000000;fill-opacity:1;fill-rule:evenodd;stroke:#000000;stroke-width:0.625;stroke-linejoin:round;stroke-opacity:1"
         d="M 8.7185878,4.0337352 -2.2072895,0.01601326 8.7185884,-4.0017078 c -1.7454984,2.3720609 -1.7354408,5.6174519 -6e-7,8.035443 z"
         transform="matrix(-1.1,0,0,-1.1,-1.1,0)" />
    </marker>
  </defs>
  <sodipodi:namedview
     id="base"
     pagecolor="#ffffff"
     bordercolor="#666666"
     borderopacity="1.0"
     inkscape:pageopacity="0.0"
     inkscape:pageshadow="2"
     inkscape:zoom="0.70710678"
     inkscape:cx="812.17812"
     inkscape:cy="404.62997"
     inkscape:document-units="mm"
     inkscape:current-layer="layer1"
     showgrid="false"
     inkscape:window-width="1600"
     inkscape:window-height="1201"
     inkscape:window-x="1699"
     inkscape:window-y="-9"
     inkscape:window-maximized="1"
     showguides="true"
     inkscape:guide-bbox="true">
    <sodipodi:guide
       position="3.367596,252.56971"
       orientation="-0.70710678,0.70710678"
       id="guide7567"
       inkscape:locked="false" />
  </sodipodi:namedview>
  <metadata
     id="metadata6092">
    <rdf:RDF>
      <cc:Work
         rdf:about="">
        <dc:format>image/svg+xml</dc:format>
        <dc:type
           rdf:resource="http://purl.org/dc/dcmitype/StillImage" />
        <dc:title></dc:title>
      </cc:Work>
    </rdf:RDF>
  </metadata>
  <g
     inkscape:label="Layer 1"
     inkscape:groupmode="layer"
     id="layer1">
    <flowRoot
       xml:space="preserve"
       id="flowRoot6716"
       style="fill:black;fill-opacity:1;stroke:none;font-family:sans-serif;font-style:normal;font-weight:normal;font-size:40px;line-height:1.25;letter-spacing:0px;word-spacing:0px"><flowRegion
         id="flowRegion6718"><rect
           id="rect6720"
           width="166.17009"
           height="53.033009"
           x="120.91526"
           y="324.19614" /></flowRegion><flowPara
         id="flowPara6722"></flowPara></flowRoot>    <g
       id="g6884">
      <flowRoot
         style="fill:black;fill-opacity:1;stroke:none;font-family:sans-serif;font-style:normal;font-weight:normal;font-size:40px;line-height:1.25;letter-spacing:0px;word-spacing:0px"
         id="flowRoot6872"
         xml:space="preserve"><flowRegion
           id="flowRegion6874"><rect
             y="5.2909703"
             x="7.0710678"
             height="917.82458"
             width="869.74133"
             id="rect6876" /></flowRegion><flowPara
           id="flowPara6878"></flowPara></flowRoot>    </g>
    <path
       style="opacity:1;fill:#201111;fill-opacity:1;stroke:#192539;stroke-width:0.55699998;stroke-miterlimit:4;stroke-dasharray:none;stroke-dashoffset:0;stroke-opacity:1"
       id="path7060"
       sodipodi:type="arc"
       sodipodi:cx="36.2952"
       sodipodi:cy="75.861198"
       sodipodi:rx="1.8708867"
       sodipodi:ry="2.2450638"
       sodipodi:start="0.43602514"
       sodipodi:end="0.42020373"
       sodipodi:open="true"
       d="m 37.991042,76.809378 a 1.8708867,2.2450638 0 0 1 -2.479278,1.090565 1.8708867,2.2450638 0 0 1 -0.918603,-2.970797 1.8708867,2.2450638 0 0 1 2.472011,-1.114065 1.8708867,2.2450638 0 0 1 0.938159,2.961983" />
    <path
       style="opacity:1;fill:#201111;fill-opacity:1;stroke:#192539;stroke-width:0.55699998;stroke-miterlimit:4;stroke-dasharray:none;stroke-dashoffset:0;stroke-opacity:1"
       id="path7060-9"
       sodipodi:type="arc"
       sodipodi:cx="34.79855"
       sodipodi:cy="97.937653"
       sodipodi:rx="1.8708867"
       sodipodi:ry="2.245064"
       sodipodi:start="0.43602514"
       sodipodi:end="0.42020373"
       sodipodi:open="true"
       d="M 36.494392,98.885833 A 1.8708867,2.245064 0 0 1 34.015113,99.976397 1.8708867,2.245064 0 0 1 33.09651,97.0056 1.8708867,2.245064 0 0 1 35.568522,95.891535 1.8708867,2.245064 0 0 1 36.50668,98.853519" />
    <path
       style="opacity:1;fill:#201111;fill-opacity:1;stroke:#192539;stroke-width:0.55699998;stroke-miterlimit:4;stroke-dasharray:none;stroke-dashoffset:0;stroke-opacity:1"
       id="path7060-2"
       sodipodi:type="arc"
       sodipodi:cx="57.997543"
       sodipodi:cy="89.705757"
       sodipodi:rx="1.8708867"
       sodipodi:ry="2.245064"
       sodipodi:start="0.43602514"
       sodipodi:end="0.42020373"
       sodipodi:open="true"
       d="m 59.693385,90.653937 a 1.8708867,2.245064 0 0 1 -2.479278,1.090565 1.8708867,2.245064 0 0 1 -0.918603,-2.970797 1.8708867,2.245064 0 0 1 2.472011,-1.114066 1.8708867,2.245064 0 0 1 0.938159,2.961984" />
    <path
       style="opacity:1;fill:#201111;fill-opacity:1;stroke:#192539;stroke-width:0.55699998;stroke-miterlimit:4;stroke-dasharray:none;stroke-dashoffset:0;stroke-opacity:1"
       id="path7060-4"
       sodipodi:type="arc"
       sodipodi:cx="53.133236"
       sodipodi:cy="110.65968"
       sodipodi:rx="1.8708867"
       sodipodi:ry="2.245064"
       sodipodi:start="0.43602514"
       sodipodi:end="0.42020373"
       sodipodi:open="true"
       d="m 54.829078,111.60786 a 1.8708867,2.245064 0 0 1 -2.479278,1.09057 1.8708867,2.245064 0 0 1 -0.918604,-2.9708 1.8708867,2.245064 0 0 1 2.472012,-1.11406 1.8708867,2.245064 0 0 1 0.938158,2.96198" />
    <path
       style="opacity:1;fill:none;fill-opacity:1;stroke:#192539;stroke-width:0.55699998;stroke-miterlimit:4;stroke-dasharray:none;stroke-dashoffset:0;stroke-opacity:1"
       id="path7060-20"
       sodipodi:type="arc"
       sodipodi:cx="130.58795"
       sodipodi:cy="153.69008"
       sodipodi:rx="1.8708867"
       sodipodi:ry="2.245064"
       sodipodi:start="0.43602514"
       sodipodi:end="0.42020373"
       sodipodi:open="true"
       d="m 132.28379,154.63826 a 1.8708867,2.245064 0 0 1 -2.47927,1.09056 1.8708867,2.245064 0 0 1 -0.91861,-2.97079 1.8708867,2.245064 0 0 1 2.47201,-1.11407 1.8708867,2.245064 0 0 1 0.93816,2.96198" />
    <path
       style="opacity:1;fill:none;fill-opacity:1;stroke:#192539;stroke-width:0.55699998;stroke-miterlimit:4;stroke-dasharray:none;stroke-dashoffset:0;stroke-opacity:1"
       id="path7060-1"
       sodipodi:type="arc"
       sodipodi:cx="148.54846"
       sodipodi:cy="131.23944"
       sodipodi:rx="1.8708867"
       sodipodi:ry="2.245064"
       sodipodi:start="0.43602514"
       sodipodi:end="0.42020373"
       sodipodi:open="true"
       d="m 150.2443,132.18762 a 1.8708867,2.245064 0 0 1 -2.47927,1.09057 1.8708867,2.245064 0 0 1 -0.91861,-2.9708 1.8708867,2.245064 0 0 1 2.47201,-1.11407 1.8708867,2.245064 0 0 1 0.93816,2.96199" />
    <path
       style="opacity:1;fill:none;fill-opacity:1;stroke:#192539;stroke-width:0.55699998;stroke-miterlimit:4;stroke-dasharray:none;stroke-dashoffset:0;stroke-opacity:1"
       id="path7060-23"
       sodipodi:type="arc"
       sodipodi:cx="153.78694"
       sodipodi:cy="157.05768"
       sodipodi:rx="1.8708867"
       sodipodi:ry="2.245064"
       sodipodi:start="0.43602514"
       sodipodi:end="0.42020373"
       sodipodi:open="true"
       d="m 155.48278,158.00586 a 1.8708867,2.245064 0 0 1 -2.47927,1.09056 1.8708867,2.245064 0 0 1 -0.91861,-2.97079 1.8708867,2.245064 0 0 1 2.47201,-1.11407 1.8708867,2.245064 0 0 1 0.93816,2.96198" />
    <path
       style="opacity:1;fill:none;fill-opacity:1;stroke:#192539;stroke-width:0.55699998;stroke-miterlimit:4;stroke-dasharray:none;stroke-dashoffset:0;stroke-opacity:1"
       id="path7060-3"
       sodipodi:type="arc"
       sodipodi:cx="162.39302"
       sodipodi:cy="176.51489"
       sodipodi:rx="1.8708867"
       sodipodi:ry="2.245064"
       sodipodi:start="0.43602514"
       sodipodi:end="0.42020373"
       sodipodi:open="true"
       d="m 164.08886,177.46307 a 1.8708867,2.245064 0 0 1 -2.47928,1.09057 1.8708867,2.245064 0 0 1 -0.9186,-2.9708 1.8708867,2.245064 0 0 1 2.47201,-1.11407 1.8708867,2.245064 0 0 1 0.93816,2.96199" />
    <path
       style="fill:none;stroke:#000000;stroke-width:0.28322473px;stroke-linecap:butt;stroke-linejoin:miter;stroke-opacity:1"
       d="M 43.039077,204.19741 167.99695,50.797915"
       id="path7113"
       inkscape:connector-curvature="0" />
    <path
       style="opacity:1;fill:#201111;fill-opacity:1;stroke:#192539;stroke-width:0.55699998;stroke-miterlimit:4;stroke-dasharray:none;stroke-dashoffset:0;stroke-opacity:1"
       id="path7060-2-3"
       sodipodi:type="arc"
       sodipodi:cx="79.325653"
       sodipodi:cy="108.04044"
       sodipodi:rx="1.8708867"
       sodipodi:ry="2.245064"
       sodipodi:start="0.43602514"
       sodipodi:end="0.42020373"
       sodipodi:open="true"
       d="m 81.021495,108.98862 a 1.8708867,2.245064 0 0 1 -2.479278,1.09057 1.8708867,2.245064 0 0 1 -0.918603,-2.9708 1.8708867,2.245064 0 0 1 2.472011,-1.11406 1.8708867,2.245064 0 0 1 0.938159,2.96198" />
    <path
       style="fill:none;stroke:#000000;stroke-width:0.27877468px;stroke-linecap:butt;stroke-linejoin:miter;stroke-opacity:1"
       d="M 72.971234,228.14636 193.44303,73.995309"
       id="path7113-1"
       inkscape:connector-curvature="0" />
    <flowRoot
       xml:space="preserve"
       id="flowRoot7145"
       style="font-style:normal;font-weight:normal;font-size:40px;line-height:1.25;font-family:sans-serif;letter-spacing:0px;word-spacing:0px;fill:#000000;fill-opacity:1;stroke:none"
       transform="matrix(0.26458333,0,0,0.26458333,-57.62331,60.990906)"><flowRegion
         id="flowRegion7147"><rect
           id="rect7149"
           width="274.35745"
           height="131.52187"
           x="288.49957"
           y="278.23419" /></flowRegion><flowPara
         id="flowPara7151">support vector</flowPara></flowRoot>    <path
       style="fill:none;stroke:#000000;stroke-width:0.26499999;stroke-linecap:butt;stroke-linejoin:miter;stroke-miterlimit:4;stroke-dasharray:none;stroke-opacity:1;marker-end:url(#Arrow2Lend)"
       d="M 57.997488,129.36855 74.286301,113.10457"
       id="path7153"
       inkscape:connector-curvature="0" />
    <flowRoot
       xml:space="preserve"
       id="flowRoot7145-6"
       style="font-style:normal;font-weight:normal;font-size:40px;line-height:1.25;font-family:sans-serif;letter-spacing:0px;word-spacing:0px;fill:#000000;fill-opacity:1;stroke:none"
       transform="matrix(0.26458333,0,0,0.26458333,-5.5201413,168.01569)"><flowRegion
         id="flowRegion7147-5"><rect
           id="rect7149-6"
           width="274.35745"
           height="131.52187"
           x="288.49957"
           y="278.23419" /></flowRegion><flowPara
         id="flowPara7151-6">support hyperplane</flowPara></flowRoot>    <flowRoot
       xml:space="preserve"
       id="flowRoot7557"
       style="font-style:normal;font-weight:normal;font-size:40px;line-height:1.25;font-family:sans-serif;text-align:center;letter-spacing:0px;word-spacing:0px;text-anchor:middle;fill:#000000;fill-opacity:1;stroke:none"
       transform="matrix(0.26458333,0,0,0.26458333,-1.8708863,-29.934187)"><flowRegion
         id="flowRegion7559"
         style="text-align:center;text-anchor:middle"><rect
           id="rect7561"
           width="247.48738"
           height="199.40411"
           x="439.8204"
           y="182.06767"
           style="text-align:center;text-anchor:middle" /></flowRegion><flowPara
         id="flowPara7563">optimal</flowPara><flowPara
         id="flowPara7565">hyperplane</flowPara></flowRoot>    <flowRoot
       xml:space="preserve"
       id="flowRoot7569"
       style="font-style:normal;font-weight:normal;font-size:40px;line-height:1.25;font-family:sans-serif;text-align:center;letter-spacing:0px;word-spacing:0px;text-anchor:middle;fill:#000000;fill-opacity:1;stroke:none"
       transform="matrix(0.26458333,0,0,0.26458333,-23.94735,-9.3544335)"><flowRegion
         id="flowRegion7571"
         style="text-align:center;text-anchor:middle"><rect
           id="rect7573"
           width="192.33302"
           height="123.03658"
           x="644.88141"
           y="561.0769"
           style="text-align:center;text-anchor:middle" /></flowRegion><flowPara
         id="flowPara7575">Grade</flowPara><flowPara
         id="flowPara7577">3</flowPara></flowRoot>    <flowRoot
       xml:space="preserve"
       id="flowRoot7569-6"
       style="font-style:normal;font-weight:normal;font-size:40px;line-height:1.25;font-family:sans-serif;text-align:center;letter-spacing:0px;word-spacing:0px;text-anchor:middle;fill:#000000;fill-opacity:1;stroke:none"
       transform="matrix(0.26458333,0,0,0.26458333,-143.69959,-90.609904)"><flowRegion
         id="flowRegion7571-9"
         style="text-align:center;text-anchor:middle"><rect
           id="rect7573-7"
           width="192.33302"
           height="123.03658"
           x="644.88141"
           y="561.0769"
           style="text-align:center;text-anchor:middle" /></flowRegion><flowPara
         id="flowPara7575-0">Grade</flowPara><flowPara
         id="flowPara7577-9">4</flowPara></flowRoot>    <path
       style="fill:none;stroke:#000000;stroke-width:0.26323181;stroke-linecap:butt;stroke-linejoin:miter;stroke-miterlimit:4;stroke-dasharray:none;stroke-opacity:1;marker-end:url(#Arrow2Lend-9)"
       d="M 96.308343,238.28885 81.276153,220.89967"
       id="path7153-2"
       inkscape:connector-curvature="0" />
    <path
       style="fill:none;stroke:#000000;stroke-width:0.2707735;stroke-linecap:butt;stroke-linejoin:miter;stroke-miterlimit:4;stroke-dasharray:none;stroke-opacity:1;marker-end:url(#Arrow2Lend-0)"
       d="m 138.04714,46.080657 18.10727,15.2751"
       id="path7153-7"
       inkscape:connector-curvature="0" />
  </g>
</svg>
